<svg xmlns="http://www.w3.org/2000/svg" viewBox="0 0 880 210" width="880" height="210">
  <defs>
    <linearGradient id="bg" x1="0" y1="0" x2="1" y2="1"><stop offset="0" stop-color="#0b0f14"/><stop offset="1" stop-color="#131a22"/></linearGradient>
    <linearGradient id="acc" x1="0" y1="0" x2="1" y2="0"><stop offset="0" stop-color="#f5a524"/><stop offset="1" stop-color="#4fd1c5"/></linearGradient>
    <radialGradient id="glow" cx="0.5" cy="0.5" r="0.5"><stop offset="0" stop-color="#f5a524" stop-opacity="0.10"/><stop offset="1" stop-color="#f5a524" stop-opacity="0"/></radialGradient>
  </defs>
  <rect width="880" height="210" rx="10" fill="url(#bg)"/>
  <rect x="0.5" y="0.5" width="879" height="209" rx="10" fill="none" stroke="#1c2530"/>
  <ellipse cx="713" cy="100" rx="200" ry="90" fill="url(#glow)"/>
  <g fill="#1c2530"><circle cx="540" cy="44" r="0.9"/><circle cx="540" cy="64" r="0.9"/><circle cx="540" cy="84" r="0.9"/><circle cx="540" cy="104" r="0.9"/><circle cx="540" cy="124" r="0.9"/><circle cx="540" cy="144" r="0.9"/><circle cx="540" cy="164" r="0.9"/><circle cx="560" cy="44" r="0.9"/><circle cx="560" cy="64" r="0.9"/><circle cx="560" cy="84" r="0.9"/><circle cx="560" cy="104" r="0.9"/><circle cx="560" cy="124" r="0.9"/><circle cx="560" cy="144" r="0.9"/><circle cx="560" cy="164" r="0.9"/><circle cx="580" cy="44" r="0.9"/><circle cx="580" cy="64" r="0.9"/><circle cx="580" cy="84" r="0.9"/><circle cx="580" cy="104" r="0.9"/><circle cx="580" cy="124" r="0.9"/><circle cx="580" cy="144" r="0.9"/><circle cx="580" cy="164" r="0.9"/><circle cx="600" cy="44" r="0.9"/><circle cx="600" cy="64" r="0.9"/><circle cx="600" cy="84" r="0.9"/><circle cx="600" cy="104" r="0.9"/><circle cx="600" cy="124" r="0.9"/><circle cx="600" cy="144" r="0.9"/><circle cx="600" cy="164" r="0.9"/><circle cx="620" cy="44" r="0.9"/><circle cx="620" cy="64" r="0.9"/><circle cx="620" cy="84" r="0.9"/><circle cx="620" cy="104" r="0.9"/><circle cx="620" cy="124" r="0.9"/><circle cx="620" cy="144" r="0.9"/><circle cx="620" cy="164" r="0.9"/><circle cx="640" cy="44" r="0.9"/><circle cx="640" cy="64" r="0.9"/><circle cx="640" cy="84" r="0.9"/><circle cx="640" cy="104" r="0.9"/><circle cx="640" cy="124" r="0.9"/><circle cx="640" cy="144" r="0.9"/><circle cx="640" cy="164" r="0.9"/><circle cx="660" cy="44" r="0.9"/><circle cx="660" cy="64" r="0.9"/><circle cx="660" cy="84" r="0.9"/><circle cx="660" cy="104" r="0.9"/><circle cx="660" cy="124" r="0.9"/><circle cx="660" cy="144" r="0.9"/><circle cx="660" cy="164" r="0.9"/><circle cx="680" cy="44" r="0.9"/><circle cx="680" cy="64" r="0.9"/><circle cx="680" cy="84" r="0.9"/><circle cx="680" cy="104" r="0.9"/><circle cx="680" cy="124" r="0.9"/><circle cx="680" cy="144" r="0.9"/><circle cx="680" cy="164" r="0.9"/><circle cx="700" cy="44" r="0.9"/><circle cx="700" cy="64" r="0.9"/><circle cx="700" cy="84" r="0.9"/><circle cx="700" cy="104" r="0.9"/><circle cx="700" cy="124" r="0.9"/><circle cx="700" cy="144" r="0.9"/><circle cx="700" cy="164" r="0.9"/><circle cx="720" cy="44" r="0.9"/><circle cx="720" cy="64" r="0.9"/><circle cx="720" cy="84" r="0.9"/><circle cx="720" cy="104" r="0.9"/><circle cx="720" cy="124" r="0.9"/><circle cx="720" cy="144" r="0.9"/><circle cx="720" cy="164" r="0.9"/><circle cx="740" cy="44" r="0.9"/><circle cx="740" cy="64" r="0.9"/><circle cx="740" cy="84" r="0.9"/><circle cx="740" cy="104" r="0.9"/><circle cx="740" cy="124" r="0.9"/><circle cx="740" cy="144" r="0.9"/><circle cx="740" cy="164" r="0.9"/><circle cx="760" cy="44" r="0.9"/><circle cx="760" cy="64" r="0.9"/><circle cx="760" cy="84" r="0.9"/><circle cx="760" cy="104" r="0.9"/><circle cx="760" cy="124" r="0.9"/><circle cx="760" cy="144" r="0.9"/><circle cx="760" cy="164" r="0.9"/><circle cx="780" cy="44" r="0.9"/><circle cx="780" cy="64" r="0.9"/><circle cx="780" cy="84" r="0.9"/><circle cx="780" cy="104" r="0.9"/><circle cx="780" cy="124" r="0.9"/><circle cx="780" cy="144" r="0.9"/><circle cx="780" cy="164" r="0.9"/><circle cx="800" cy="44" r="0.9"/><circle cx="800" cy="64" r="0.9"/><circle cx="800" cy="84" r="0.9"/><circle cx="800" cy="104" r="0.9"/><circle cx="800" cy="124" r="0.9"/><circle cx="800" cy="144" r="0.9"/><circle cx="800" cy="164" r="0.9"/><circle cx="820" cy="44" r="0.9"/><circle cx="820" cy="64" r="0.9"/><circle cx="820" cy="84" r="0.9"/><circle cx="820" cy="104" r="0.9"/><circle cx="820" cy="124" r="0.9"/><circle cx="820" cy="144" r="0.9"/><circle cx="820" cy="164" r="0.9"/><circle cx="840" cy="44" r="0.9"/><circle cx="840" cy="64" r="0.9"/><circle cx="840" cy="84" r="0.9"/><circle cx="840" cy="104" r="0.9"/><circle cx="840" cy="124" r="0.9"/><circle cx="840" cy="144" r="0.9"/><circle cx="840" cy="164" r="0.9"/><circle cx="860" cy="44" r="0.9"/><circle cx="860" cy="64" r="0.9"/><circle cx="860" cy="84" r="0.9"/><circle cx="860" cy="104" r="0.9"/><circle cx="860" cy="124" r="0.9"/><circle cx="860" cy="144" r="0.9"/><circle cx="860" cy="164" r="0.9"/></g>
  <line x1="0" y1="34" x2="880" y2="34" stroke="#1c2530"/>
  <line x1="0" y1="186" x2="880" y2="186" stroke="#1c2530"/>
  <line x1="540" y1="34" x2="540" y2="186" stroke="#1c2530"/>

  <g font-family="ui-monospace, SFMono-Regular, 'JetBrains Mono', Menlo, monospace" font-size="10" fill="#7d8590">
    <circle cx="22" cy="18" r="4" fill="#ff5f57"/><circle cx="36" cy="18" r="4" fill="#febc2e"/><circle cx="50" cy="18" r="4" fill="#28c840"/>
    <text x="66" y="21">~/mlinmiha — zsh</text>
    <text x="856" y="21" text-anchor="end" fill="#4fd1c5">● online</text>
    <text x="24" y="202">Maribor, Slovenia</text>
    <text x="856" y="202" text-anchor="end">agent loop</text>
  </g>

  <text x="24" y="90" font-family="-apple-system, 'Segoe UI', Helvetica, Arial, sans-serif" font-size="36" font-weight="700" fill="#e6edf3" letter-spacing="0.3">Miha Mlinarič</text>
  <rect x="25" y="102" width="150" height="3" rx="1.5" fill="url(#acc)">
    <animate attributeName="width" values="0;150;150" keyTimes="0;0.3;1" dur="3s" fill="freeze"/>
  </rect>
  <text x="25" y="130" font-family="-apple-system, 'Segoe UI', Helvetica, Arial, sans-serif" font-size="13" font-weight="600" fill="#f5a524" letter-spacing="3.2">FULL-STACK · AI · AUTOMATION</text>
  <text x="25" y="158" font-family="ui-monospace, SFMono-Regular, 'JetBrains Mono', Menlo, monospace" font-size="11" fill="#7d8590">TypeScript · Python · PostgreSQL · LLM agents · Linux</text>

  <g><line x1="600" y1="78" x2="648" y2="78" stroke="#2a3542" stroke-width="1"/><circle r="2" cx="600" cy="78" opacity="0" fill="#f5a524"><animate attributeName="cx" values="600;648" dur="1s" begin="0s;pkt0.end+2s" id="pkt0"/><animate attributeName="opacity" values="0;1;1;0" keyTimes="0;0.1;0.85;1" dur="1s" begin="0s;pkt0.end+2s"/></circle><line x1="690" y1="78" x2="738" y2="78" stroke="#2a3542" stroke-width="1"/><circle r="2" cx="690" cy="78" opacity="0" fill="#4fd1c5"><animate attributeName="cx" values="690;738" dur="1s" begin="1s;pkt1.end+2s" id="pkt1"/><animate attributeName="opacity" values="0;1;1;0" keyTimes="0;0.1;0.85;1" dur="1s" begin="1s;pkt1.end+2s"/></circle><line x1="780" y1="78" x2="824" y2="78" stroke="#2a3542" stroke-width="1"/><circle r="2" cx="780" cy="78" opacity="0" fill="#f5a524"><animate attributeName="cx" values="780;824" dur="1s" begin="2s;pkt2.end+2s" id="pkt2"/><animate attributeName="opacity" values="0;1;1;0" keyTimes="0;0.1;0.85;1" dur="1s" begin="2s;pkt2.end+2s"/></circle><path d="M846 114 Q713 142 580 114" fill="none" stroke="#2a3542" stroke-width="1" stroke-dasharray="3 4"><animate attributeName="stroke-dashoffset" values="0;-28" dur="2s" repeatCount="indefinite"/></path><text x="713" y="136" text-anchor="middle" font-family="ui-monospace, SFMono-Regular, 'JetBrains Mono', Menlo, monospace" font-size="8" fill="#7d8590">iterate</text></g>
  <g><rect x="562" y="66" width="36" height="24" rx="6" fill="#10161d" stroke="#f5a524" stroke-width="1.3"><animate attributeName="stroke-opacity" values="0.35;1;0.35" dur="4s" begin="0s" repeatCount="indefinite"/></rect><text x="580" y="106" text-anchor="middle" font-family="ui-monospace, SFMono-Regular, 'JetBrains Mono', Menlo, monospace" font-size="9" fill="#7d8590">prompt</text><rect x="652" y="66" width="36" height="24" rx="6" fill="#10161d" stroke="#4fd1c5" stroke-width="1.3"><animate attributeName="stroke-opacity" values="0.35;1;0.35" dur="4s" begin="1s" repeatCount="indefinite"/></rect><text x="670" y="106" text-anchor="middle" font-family="ui-monospace, SFMono-Regular, 'JetBrains Mono', Menlo, monospace" font-size="9" fill="#7d8590">agent</text><rect x="742" y="66" width="36" height="24" rx="6" fill="#10161d" stroke="#f5a524" stroke-width="1.3"><animate attributeName="stroke-opacity" values="0.35;1;0.35" dur="4s" begin="2s" repeatCount="indefinite"/></rect><text x="760" y="106" text-anchor="middle" font-family="ui-monospace, SFMono-Regular, 'JetBrains Mono', Menlo, monospace" font-size="9" fill="#7d8590">tools</text><rect x="828" y="66" width="36" height="24" rx="6" fill="#10161d" stroke="#4fd1c5" stroke-width="1.3"><animate attributeName="stroke-opacity" values="0.35;1;0.35" dur="4s" begin="3s" repeatCount="indefinite"/></rect><text x="846" y="106" text-anchor="middle" font-family="ui-monospace, SFMono-Regular, 'JetBrains Mono', Menlo, monospace" font-size="9" fill="#7d8590">merge</text></g>
  <g><text x="580" y="82" text-anchor="middle" font-family="ui-monospace, SFMono-Regular, 'JetBrains Mono', Menlo, monospace" font-size="11" fill="#f5a524">&gt;_</text><g transform="translate(670,78)" fill="none" stroke="#4fd1c5" stroke-width="1.2"><circle r="5"/><circle r="1.6" fill="#4fd1c5"/><circle r="8" stroke-dasharray="2 3" stroke-opacity="0.8"><animateTransform attributeName="transform" type="rotate" from="0" to="360" dur="6s" repeatCount="indefinite"/></circle></g><g transform="translate(760,78)" fill="none" stroke="#f5a524" stroke-width="1.2"><path d="M-6 4 l6 -8 l6 8 z"/><path d="M-8 -6 h4 M4 -6 h4"/></g><g transform="translate(846,78)" fill="none" stroke="#4fd1c5" stroke-width="1.3"><path d="M-5 0 l3.5 3.5 l6.5 -7"/></g></g>
  <text x="566" y="152" font-family="ui-monospace, SFMono-Regular, 'JetBrains Mono', Menlo, monospace" font-size="8" fill="#7d8590">last run</text>
  <g><text x="566" y="172" font-family="ui-monospace, SFMono-Regular, 'JetBrains Mono', Menlo, monospace" font-size="10" fill="#4fd1c5" opacity="1"><animate attributeName="opacity" values="1;1;1;0;0" keyTimes="0;0.01;0.313;0.333;1" dur="9s" repeatCount="indefinite"/>✓ tests passed</text><text x="566" y="172" font-family="ui-monospace, SFMono-Regular, 'JetBrains Mono', Menlo, monospace" font-size="10" fill="#f5a524" opacity="0"><animate attributeName="opacity" values="0;0;1;1;0;0" keyTimes="0;0.333;0.343;0.647;0.667;1" dur="9s" repeatCount="indefinite"/>↻ refactor applied</text><text x="566" y="172" font-family="ui-monospace, SFMono-Regular, 'JetBrains Mono', Menlo, monospace" font-size="10" fill="#4fd1c5" opacity="0"><animate attributeName="opacity" values="0;0;1;1;0;0" keyTimes="0;0.667;0.677;0.980;1.000;1" dur="9s" repeatCount="indefinite"/>✓ deployed · preview</text></g>

  <rect x="836" y="163" width="7" height="12" rx="1" fill="#f5a524">
    <animate attributeName="opacity" values="1;1;0;0;1" keyTimes="0;0.45;0.5;0.95;1" dur="1.1s" repeatCount="indefinite"/>
  </rect>
</svg>
